<?xml version="1.0" encoding="UTF-8"?>
<!DOCTYPE svg PUBLIC "-//W3C//DTD SVG 1.1//EN" "http://www.w3.org/Graphics/SVG/1.1/DTD/svg11.dtd">
<svg xmlns="http://www.w3.org/2000/svg" version="1.1" width="227px" height="168px" style="shape-rendering:geometricPrecision; text-rendering:geometricPrecision; image-rendering:optimizeQuality; fill-rule:evenodd; clip-rule:evenodd" xmlns:xlink="http://www.w3.org/1999/xlink">
<g><path style="opacity:1" fill="#fefefe" d="M -0.5,-0.5 C 75.1667,-0.5 150.833,-0.5 226.5,-0.5C 226.5,55.5 226.5,111.5 226.5,167.5C 150.833,167.5 75.1667,167.5 -0.5,167.5C -0.5,111.5 -0.5,55.5 -0.5,-0.5 Z"/></g>
<g><path style="opacity:1" fill="#1b90d6" d="M 34.5,14.5 C 87.501,14.3333 140.501,14.5 193.5,15C 204.667,18.1667 211.833,25.3333 215,36.5C 215.667,60.1667 215.667,83.8333 215,107.5C 211.833,118.667 204.667,125.833 193.5,129C 171.503,129.5 149.503,129.667 127.5,129.5C 127.5,131.5 127.5,133.5 127.5,135.5C 131.514,135.334 135.514,135.501 139.5,136C 140,136.5 140.5,137 141,137.5C 141.667,141.833 141.667,146.167 141,150.5C 140.5,151 140,151.5 139.5,152C 123.833,152.667 108.167,152.667 92.5,152C 92,151.5 91.5,151 91,150.5C 90.3333,146.167 90.3333,141.833 91,137.5C 91.5,137 92,136.5 92.5,136C 96.4862,135.501 100.486,135.334 104.5,135.5C 104.5,133.5 104.5,131.5 104.5,129.5C 81.1643,129.667 57.831,129.5 34.5,129C 23.3333,125.833 16.1667,118.667 13,107.5C 12.3333,83.8333 12.3333,60.1667 13,36.5C 16.3501,25.3177 23.5167,17.9844 34.5,14.5 Z"/></g>
<g><path style="opacity:1" fill="#fefefe" d="M 45.5,32.5 C 90.8346,32.3333 136.168,32.5 181.5,33C 189.575,34.7778 194.742,39.6111 197,47.5C 197.5,59.1619 197.667,70.8286 197.5,82.5C 141.833,82.5 86.1667,82.5 30.5,82.5C 30.3335,70.8286 30.5001,59.1619 31,47.5C 32.3988,44.3707 34.0655,41.3707 36,38.5C 39.1796,36.3377 42.3463,34.3377 45.5,32.5 Z"/></g>
<g><path style="opacity:1" fill="#2c95d7" d="M 86.5,48.5 C 91.4082,47.874 95.9082,48.874 100,51.5C 105.049,64.5457 100.549,70.379 86.5,69C 77.2138,62.1689 77.2138,55.3355 86.5,48.5 Z"/></g>
<g><path style="opacity:1" fill="#2292d6" d="M 132.5,48.5 C 138.167,48.5 143.833,48.5 149.5,48.5C 149.5,50.5 149.5,52.5 149.5,54.5C 147.833,54.5 146.167,54.5 144.5,54.5C 144.5,59.5 144.5,64.5 144.5,69.5C 142.167,69.5 139.833,69.5 137.5,69.5C 137.5,64.5 137.5,59.5 137.5,54.5C 135.833,54.5 134.167,54.5 132.5,54.5C 132.5,52.5 132.5,50.5 132.5,48.5 Z"/></g>
<g><path style="opacity:1" fill="#f7fbfd" d="M 89.5,54.5 C 94.0119,54.8689 95.5119,57.2022 94,61.5C 90.5089,64.4456 88.3422,63.6122 87.5,59C 87.5186,57.167 88.1852,55.667 89.5,54.5 Z"/></g>
<g><path style="opacity:1" fill="#fefefe" d="M 32.5,100.5 C 86.8374,100.167 141.171,100.5 195.5,101.5C 192.654,107.439 187.987,111.272 181.5,113C 136.167,113.667 90.8333,113.667 45.5,113C 38.9224,111.065 34.589,106.899 32.5,100.5 Z"/></g>
</svg>
